:SAMPLES-PER-SECOND 24
:FULLY-SPECIFIED
:DEGREES
439
root  -2.52324 38.5863 45.5139 179.951 56.9187 -175.955
RightUpLeg  -0.305103 -6.84818 -10.2049
RightLeg  21.9037 10.0837 4.22965
RightFoot  -14.5494 0.249985 12.4481
RightToes  -1.74623e-010 0 -2.59999e-017
Spine  3.62504 2.28035 3.19454
Spine1  16.3852 3.17619 -2.17516
HEad  -25.1026 47.5293 -27.718
LeftShoulder1  1.96616 -2.8043 -24.9842
LeftArm  10.1463 10.822 -39.5323
LeftForeArm  -5.57663 -18.3729 -7.67308
LeftHand  -0.311458 3.4217 18.0701
RightShoulder  3.35178 5.56901 31.054
RightArm  -1.86651 -11.0164 26.8998
RightForeArm  150.276 68.1575 153.248
RightHand  0.574169 -13.2964 -9.12442
LeftUpLeg  -14.0321 0.896863 15.1353
LeftLeg  22.0603 23.8513 10.5121
LeftFoot  3.77761 -0.26829 1.82877
LeftToes  -6.27559e-011 -2.10356e-011 8.24929e-012
440
root  -2.39099 38.8529 45.5043 178.393 59.0001 -178.129
RightUpLeg  0.176692 -4.28674 -11.0408
RightLeg  19.4402 9.7537 3.59881
RightFoot  -13.9787 0.192736 12.4647
RightToes  -1.74623e-010 0 -2.59999e-017
Spine  2.75977 1.79617 1.58101
Spine1  16.0827 2.38315 -1.51651
HEad  -24.0534 50.3337 -28.544
LeftShoulder1  1.94517 -2.67289 -25.3207
LeftArm  11.9718 13.485 -42.3765
LeftForeArm  -3.65738 -21.6154 -5.61316
LeftHand  -0.464314 1.94462 15.5332
RightShoulder  3.3161 5.49633 30.9552
RightArm  -3.20465 -19.2693 24.4301
RightForeArm  147.341 65.9504 155.508
RightHand  0.551124 -12.1504 -10.1734
LeftUpLeg  -12.279 5.23684 14.4366
LeftLeg  19.2191 22.9445 8.93486
LeftFoot  7.77262 0.270561 -1.88859
LeftToes  -6.27559e-011 -2.10356e-011 8.24929e-012
441
root  -2.38021 38.8973 45.4505 177.256 58.8135 -179.51
RightUpLeg  0.718182 -3.73937 -11.7644
RightLeg  18.4716 9.23675 3.20322
RightFoot  -14.3447 0.226222 12.3035
RightToes  -1.74623e-010 0 -2.59999e-017
Spine  2.48165 0.711431 0.428021
Spine1  16.5098 0.939236 -0.507993
HEad  -25.1573 51.7728 -30.4869
LeftShoulder1  1.89996 -2.52626 -25.3355
LeftArm  10.5962 13.634 -44.2628
LeftForeArm  4.20733 -24.9292 -5.06033
LeftHand  -0.533389 1.17271 14.6457
RightShoulder  3.22216 5.35957 30.4579
RightArm  -4.84902 -25.9155 22.6756
RightForeArm  141.889 65.0405 155.878
RightHand  0.580319 -11.2962 -12.0997
LeftUpLeg  -13.0055 8.03793 14.4491
LeftLeg  19.7209 16.4796 6.72659
LeftFoot  9.81918 0.721082 -4.1984
LeftToes  -6.27559e-011 -2.10356e-011 8.24929e-012
442
root  -2.47662 38.7979 45.2768 176.448 57.9924 -179.998
RightUpLeg  1.19258 -3.32747 -12.3337
RightLeg  18.9637 8.42687 2.98909
RightFoot  -15.1917 0.343266 13.2209
RightToes  -1.74623e-010 0 -2.59999e-017
Spine  2.96895 -0.248603 0.910114
Spine1  17.2413 0.129183 -1.0152
HEad  -26.1594 51.8956 -31.676
LeftShoulder1  1.83912 -2.41223 -24.8955
LeftArm  10.4372 11.2134 -44.9697
LeftForeArm  10.6083 -27.3649 -5.32743
LeftHand  -0.560815 1.14577 15.3174
RightShoulder  3.23133 5.35838 30.5675
RightArm  -6.65367 -30.6714 21.8419
RightForeArm  140.848 65.5934 155.177
RightHand  0.84591 -11.574 -16.2866
LeftUpLeg  -14.2357 7.77633 14.8326
LeftLeg  21.6745 7.98044 3.80119
LeftFoot  8.5087 0.59199 -3.67162
LeftToes  -6.27559e-011 -2.10356e-011 8.24929e-012
443
root  -2.60036 38.6811 44.9455 175.551 57.6311 179.375
RightUpLeg  1.54887 -3.10472 -13.3311
RightLeg  19.511 8.39877 3.08575
RightFoot  -15.7856 0.439784 14.0441
RightToes  -1.74623e-010 0 -2.59999e-017
Spine  3.29224 -0.565126 1.16422
Spine1  17.9404 -0.0457372 -1.60326
HEad  -25.8633 51.5738 -31.5209
LeftShoulder1  1.81139 -2.41008 -24.417
LeftArm  10.2714 8.62305 -45.2263
LeftForeArm  13.8379 -29.2512 -5.58985
LeftHand  -0.54156 1.53985 16.2705
RightShoulder  3.33287 5.49566 31.1464
RightArm  -7.79345 -32.7606 21.7483
RightForeArm  141.884 66.8681 153.842
RightHand  1.43021 -13.3111 -20.9307
LeftUpLeg  -14.5655 7.01437 15.1085
LeftLeg  21.8912 4.67751 2.40978
LeftFoot  6.06167 0.384772 -2.77099
LeftToes  -6.27559e-011 -2.10356e-011 8.24929e-012
